<mxfile host="app.diagrams.net" modified="2023-03-17T11:25:57.654Z" agent="5.0 (Macintosh; Intel Mac OS X 10_15_7) AppleWebKit/537.36 (KHTML, like Gecko) Chrome/111.0.0.0 Safari/537.36" etag="Caw2ZfR6Inl5oVSHO45V" version="20.8.23" type="github">
  <diagram name="第 1 页" id="8wkrA-uFrjsJxiaeVhfO">
    <mxGraphModel dx="1085" dy="628" grid="0" gridSize="10" guides="1" tooltips="1" connect="1" arrows="1" fold="1" page="1" pageScale="1" pageWidth="827" pageHeight="1169" math="0" shadow="0">
      <root>
        <mxCell id="0" />
        <mxCell id="1" parent="0" />
        <mxCell id="QkwWfF4jqv66D6PKne8Z-3" value="开始" style="ellipse;whiteSpace=wrap;html=1;" vertex="1" parent="1">
          <mxGeometry x="278" y="65" width="120" height="65" as="geometry" />
        </mxCell>
        <mxCell id="QkwWfF4jqv66D6PKne8Z-4" value="进行MD5加密" style="rounded=1;whiteSpace=wrap;html=1;" vertex="1" parent="1">
          <mxGeometry x="278" y="160" width="120" height="60" as="geometry" />
        </mxCell>
        <mxCell id="QkwWfF4jqv66D6PKne8Z-9" value="" style="edgeStyle=orthogonalEdgeStyle;rounded=0;orthogonalLoop=1;jettySize=auto;html=1;" edge="1" parent="1" source="QkwWfF4jqv66D6PKne8Z-5" target="QkwWfF4jqv66D6PKne8Z-6">
          <mxGeometry relative="1" as="geometry" />
        </mxCell>
        <mxCell id="QkwWfF4jqv66D6PKne8Z-5" value="与数据库中的进行比较" style="rounded=1;whiteSpace=wrap;html=1;" vertex="1" parent="1">
          <mxGeometry x="278" y="260" width="120" height="50" as="geometry" />
        </mxCell>
        <mxCell id="QkwWfF4jqv66D6PKne8Z-6" value="登陆成功" style="ellipse;whiteSpace=wrap;html=1;" vertex="1" parent="1">
          <mxGeometry x="278" y="350" width="120" height="65" as="geometry" />
        </mxCell>
        <mxCell id="QkwWfF4jqv66D6PKne8Z-7" value="" style="endArrow=classic;html=1;rounded=0;entryX=0.5;entryY=0;entryDx=0;entryDy=0;exitX=0.5;exitY=1;exitDx=0;exitDy=0;" edge="1" parent="1" source="QkwWfF4jqv66D6PKne8Z-3" target="QkwWfF4jqv66D6PKne8Z-4">
          <mxGeometry width="50" height="50" relative="1" as="geometry">
            <mxPoint x="390" y="330" as="sourcePoint" />
            <mxPoint x="440" y="280" as="targetPoint" />
          </mxGeometry>
        </mxCell>
        <mxCell id="QkwWfF4jqv66D6PKne8Z-8" value="" style="endArrow=classic;html=1;rounded=0;" edge="1" parent="1" target="QkwWfF4jqv66D6PKne8Z-5">
          <mxGeometry width="50" height="50" relative="1" as="geometry">
            <mxPoint x="340" y="220" as="sourcePoint" />
            <mxPoint x="348" y="170" as="targetPoint" />
          </mxGeometry>
        </mxCell>
      </root>
    </mxGraphModel>
  </diagram>
</mxfile>
